<svg xmlns="http://www.w3.org/2000/svg" xmlns:xlink="http://www.w3.org/1999/xlink" version="1.1" x="0px" y="0px" viewBox="0 0 100 100" enable-background="new 0 0 100 100" xml:space="preserve"><path fill="#4D4D71" d="M96.189,88.96L73.396,66.181c12.215-15.091,11.299-37.338-2.713-51.363  C63.41,7.563,53.76,3.561,43.483,3.561c-10.266,0-19.928,4.002-27.188,11.257c-14.999,14.999-14.999,39.392,0,54.383  c7.261,7.269,16.923,11.264,27.188,11.264c8.896,0,17.339-3.01,24.173-8.536l22.779,22.785c0.789,0.796,1.834,1.19,2.865,1.19  c1.045,0,2.09-0.395,2.889-1.19C97.777,93.126,97.777,90.55,96.189,88.96z M22.047,63.454c-11.82-11.819-11.82-31.057,0-42.876  c5.729-5.731,13.34-8.881,21.436-8.881c8.107,0,15.716,3.15,21.447,8.881c11.809,11.819,11.809,31.057,0,42.876  c-5.73,5.725-13.34,8.88-21.447,8.88C35.387,72.334,27.776,69.179,22.047,63.454z"/></svg>