<svg xmlns="http://www.w3.org/2000/svg" xmlns:xlink="http://www.w3.org/1999/xlink" version="1.1" x="0px" y="0px" viewBox="0 0 100 100" enable-background="new 0 0 100 100" xml:space="preserve"><path d="M83,5H17C10.373,5,5,10.373,5,17v66c0,6.627,5.373,12,12,12h66c6.627,0,12-5.373,12-12V17C95,10.373,89.627,5,83,5z   M86.237,64.823c0,1.862-1.511,3.374-3.374,3.374c-0.851,0-1.62-0.326-2.213-0.846v0.015l-0.162-0.148l-0.014-0.013l-10.466-9.607  c-0.083-0.09-0.176-0.168-0.269-0.247c-0.589-0.504-1.345-0.819-2.181-0.819c-1.863,0-3.374,1.51-3.374,3.373v10.696  c0,1.862-1.511,3.374-3.374,3.374h-41.2c-1.863,0-3.374-1.512-3.374-3.374V29.4c0-1.863,1.511-3.373,3.374-3.373h41.2  c1.863,0,3.374,1.51,3.374,3.373v10.695c0,1.863,1.511,3.375,3.374,3.375c0.836,0,1.592-0.316,2.181-0.82  c0.093-0.08,0.185-0.158,0.269-0.246l10.466-9.607l0.014-0.014l0.162-0.148v0.016c0.593-0.521,1.362-0.846,2.213-0.846  c1.863,0,3.374,1.51,3.374,3.373V64.823z"/></svg>